<svg width="2675" height="417" viewBox="0 0 2675 417" fill="none" xmlns="http://www.w3.org/2000/svg">
<g clip-path="url(#clip0_1_2)">
<path d="M366.9 29C361.1 43.1 353.6 55.6 345.3 66.8C308.7 29.5 257.5 5.8 201 5.8C90 5.8 -0.7 96 -0.7 207.4C-0.7 265.6 24.2 318 63.7 355L71.2 361.7C106.1 391.2 151.5 409.1 200.9 409.1C306.9 409.1 394.2 326.4 401.7 222C407.7 171.3 392.3 106.4 366.9 29ZM92.9 356.7C87.1 364.2 76.3 365 68.8 359.2C61.3 353.4 60.5 342.6 66.3 335.1C72.1 327.6 82.9 326.8 90.4 332.6C97.5 338.4 98.7 349.2 92.9 356.7ZM365.7 296.4C316.2 362.5 209.8 340.1 142 343.4C142 343.4 129.9 344.2 117.9 345.9C117.9 345.9 122.5 343.8 128.3 341.7C176.1 325.1 198.6 321.7 227.7 306.8C282.2 278.9 336.6 217.8 347.5 154.6C326.7 215.3 263.5 267.7 206.1 288.9C166.6 303.5 95.5 317.6 95.5 317.6L92.6 315.9C44.4 292.2 42.7 187.4 130.9 153.7C169.6 138.7 206.2 147 248.2 137.1C292.7 126.7 344.3 93.4 365 49.8C388.1 120.1 416.4 229 365.7 296.4Z" fill="#6DB33F"/>
<path d="M516.2 286.4C511.2 283.9 507.9 278.1 507.9 271C507.9 261 515.8 252.7 526.2 252.7C529.9 252.7 533.3 253.9 535.8 255.2C554.5 267.7 574.5 273.9 591.9 273.9C611 273.9 622.3 265.6 622.3 252.7V251.9C622.3 236.5 601.5 231.5 578.6 224.5C549.9 216.2 517.5 204.5 517.5 167.1V166.3C517.5 129.3 548.3 106.8 586.9 106.8C607.7 106.8 629.3 112.6 648.4 122.6C654.6 125.9 659.2 131.7 659.2 139.6C659.2 150 650.9 157.9 640.5 157.9C636.8 157.9 634.7 157.1 631.8 155.8C616 147.5 599.8 142.5 586.1 142.5C568.6 142.5 558.7 150.8 558.7 161.6V162.4C558.7 177 579.9 182.8 602.8 190.3C631.5 199 663.5 212.3 663.5 247.3V248.1C663.5 289.3 631.5 309.6 591.2 309.6C565.7 309.7 538.6 301.8 516.2 286.4Z" fill="#6DB33F"/>
<path d="M680 129.7C680 117.2 689.6 107.2 702 107.2C714.4 107.2 724.5 117.2 724.5 129.7V143C739.1 122.6 759.4 106.4 791 106.4C836.7 106.4 881.6 142.6 881.6 207.9V208.7C881.6 273.6 837.1 310.2 791 310.2C758.6 310.2 738.2 294 724.5 275.7V344.7C724.5 357.2 714.5 367.2 702 367.2C689.9 367.2 680 357.6 680 344.7V129.7ZM836.8 208.7V207.9C836.8 170.1 811.4 145.5 781.1 145.5C750.7 145.5 724.1 170.9 724.1 207.9V208.7C724.1 246.1 750.7 271.1 781.1 271.1C811.4 271.5 836.8 247.3 836.8 208.7Z" fill="#6DB33F"/>
<path d="M899.1 129.7C899.1 117.2 908.7 107.2 921.1 107.2C933.5 107.2 943.6 117.2 943.6 129.7V140.5C945.7 123.9 973.1 107.2 992.7 107.2C1006.8 107.2 1014.7 116.3 1014.7 129.2C1014.7 140.8 1006.8 148.7 996.8 150.8C964.8 156.2 943.2 184.1 943.2 222.7V287.1C943.2 299.2 933.2 309.1 920.7 309.1C908.6 309.1 898.7 299.5 898.7 287.1V129.7H899.1Z" fill="#6DB33F"/>
<path d="M1032.6 130.1C1032.6 117.6 1042.2 107.6 1054.6 107.6C1067 107.6 1077.1 117.6 1077.1 130.1V287.7C1077.1 300.2 1067.1 309.7 1054.6 309.7C1042.5 309.7 1032.6 300.1 1032.6 287.7V130.1Z" fill="#6DB33F"/>
<path d="M1100 130.1C1100 117.6 1109.6 107.6 1122 107.6C1134.4 107.6 1144.5 117.6 1144.5 130.1V139.2C1157 120.9 1175.3 107.2 1205.6 107.2C1249.7 107.2 1275 136.7 1275 182V287.2C1275 299.7 1265.4 309.2 1253 309.2C1240.6 309.2 1230.5 299.6 1230.5 287.2V195.7C1230.5 165.3 1215.5 147.9 1188.5 147.9C1162.7 147.9 1144.4 166.2 1144.4 196.5V287.6C1144.4 300.1 1134.4 309.6 1121.9 309.6C1109.8 309.6 1099.9 300 1099.9 287.6L1100 130.1Z" fill="#6DB33F"/>
<path d="M1472.1 106.8C1459.6 106.8 1449.6 116.8 1449.6 129.3V142.6C1435 122.2 1414.7 106 1383.1 106C1337.4 106 1292.5 142.2 1292.5 207.5V208.3C1292.5 273.2 1337 309.8 1383.1 309.8C1415.5 309.8 1435.9 293.6 1449.6 275.7C1447.5 311 1425.9 329.3 1388.1 329.3C1365.6 329.3 1346.1 323.9 1328.2 313.9C1326.1 312.7 1323.2 312.2 1320.3 312.2C1309.9 312.2 1301.2 320.5 1301.2 330.5C1301.2 339.2 1306.2 345.5 1313.7 348.4C1337.4 360 1361.9 365.9 1389.4 365.9C1424.7 365.9 1452.2 357.6 1469.7 339.7C1485.9 323.5 1494.6 299 1494.6 266.1V129.7C1494.6 116.8 1484.6 106.8 1472.1 106.8ZM1393.5 271C1362.7 271 1337.8 246.9 1337.8 208.2V207.4C1337.8 169.6 1363.2 145 1393.5 145C1423.8 145 1450.5 170.4 1450.5 207.4V208.2C1450.9 245.7 1424.3 271 1393.5 271Z" fill="#6DB33F"/>
<path d="M1077.5 53.6C1077.5 66.1 1067.5 76.1 1055 76.1C1042.5 76.1 1032.5 66.1 1032.5 53.6C1032.5 41.1 1042.5 31.1 1055 31.1C1067.1 30.7 1077.5 40.7 1077.5 53.6Z" fill="#6DB33F"/>
<path d="M1545.7 153.8C1533.2 153.8 1522.8 143.4 1522.8 130.9C1522.8 118 1533.2 108 1545.7 108C1558.6 108 1568.6 118.4 1568.6 130.9C1568.6 143.4 1558.6 153.8 1545.7 153.8ZM1545.7 111.4C1534.9 111.4 1526.2 120.1 1526.2 130.9C1526.2 141.7 1534.9 150.4 1545.7 150.4C1556.5 150.4 1565.2 141.7 1565.2 130.9C1565.2 119.7 1556.5 111.4 1545.7 111.4ZM1551.9 143.8L1545.2 133.4H1540.6V143.8H1536.9V117.6H1547.7C1552.3 117.6 1556.4 120.9 1556.4 125.5C1556.4 131.3 1551 133.4 1549.7 133.4L1556.8 143.8H1551.9ZM1547.4 120.9H1540.7V130H1547.8C1549.9 130 1552.4 128.3 1552.4 125.4C1552.4 122.6 1549.9 120.9 1547.4 120.9Z" fill="#6DB33F"/>
<path d="M1652.3 260.1C1652.3 280.1 1639.5 294.2 1622.3 294.2C1611.9 294.2 1603.5 289 1598.6 280.5V292.7H1589.2V204.7H1598.6V239.8C1603.5 231.2 1611.8 226.1 1622.3 226.1C1639.4 226.1 1652.3 240.2 1652.3 260.1ZM1642.3 260.1C1642.3 245.1 1633.2 234.5 1620.5 234.5C1607.7 234.5 1598.6 245.1 1598.6 260.1C1598.6 275.1 1607.7 285.8 1620.5 285.8C1633.3 285.8 1642.3 275.1 1642.3 260.1Z" fill="#6DB33F"/>
<path d="M1668 313.3L1670.3 305.2C1672.6 306.3 1675.2 306.8 1678 306.8C1682.2 306.8 1684.9 305.4 1687.4 301L1691.2 292.9L1662.9 227.6H1673.3L1696.1 281.7L1717.6 227.6H1727.8L1698.1 300C1693.6 311.1 1687.3 315.2 1678.3 315.4C1674.6 315.4 1671 314.6 1668 313.3Z" fill="#6DB33F"/>
<path d="M1861.3 206.2L1823.2 292.7H1812.5L1774.4 206.2H1785.1L1818 280.6L1850.7 206.2H1861.3Z" fill="#6DB33F"/>
<path d="M1877.1 206.2H1886.9L1919 266.5L1951.1 206.2H1960.9V292.7H1951.1V227.4L1919 287.7L1886.9 227.4V292.7H1877.1V206.2Z" fill="#6DB33F"/>
<path d="M1977.2 227.6H1987.3L2003.5 280.1L2021.3 227.6H2029.5L2047.3 280.1L2063.5 227.6H2073.6L2051.7 292.7H2042.8L2025.6 240.7L2008.1 292.7H1999.2L1977.2 227.6Z" fill="#6DB33F"/>
<path d="M2140.1 253.1V292.8H2130.7V282.6C2126 290.3 2116.3 294.3 2107.8 294.3C2094.1 294.3 2084 286.4 2084 273.5C2084 260.5 2095.6 251.8 2109.6 251.8C2116.6 251.8 2124.1 253.3 2130.8 255.5V253.1C2130.8 244.3 2127.3 234.2 2113.2 234.2C2106.7 234.2 2100.1 237.1 2094.2 240.1L2090.4 232.4C2099.7 227.7 2107.5 226.1 2113.8 226.1C2131.4 226.1 2140.1 237.3 2140.1 253.1ZM2130.7 272.3V262.4C2124.8 260.8 2118.1 259.8 2111.1 259.8C2101.4 259.8 2093.2 265.3 2093.2 273.1C2093.2 281.2 2100.2 285.9 2109.4 285.9C2118 285.9 2128.2 281.5 2130.7 272.3Z" fill="#6DB33F"/>
<path d="M2194.9 226.1V234.5C2180.2 234.5 2169.7 243.6 2169.7 256.3V292.7H2160.3V227.6H2169.7V240.3C2173.6 231.7 2182.9 226.1 2194.9 226.1Z" fill="#6DB33F"/>
<path d="M2257.8 278L2263.6 284.2C2257.9 290.4 2246.5 294.3 2237.4 294.3C2220 294.3 2204.4 280.1 2204.4 260.1C2204.4 240.7 2219 226.2 2236.5 226.2C2256.1 226.2 2267.3 241.1 2267.3 263.8H2214C2215.4 276.5 2224.3 285.8 2237.2 285.8C2245 285.8 2253.8 282.4 2257.8 278ZM2214.3 255.3H2258.1C2256.8 243.6 2249.9 234.5 2236.9 234.5C2225.4 234.6 2216.1 242.7 2214.3 255.3Z" fill="#6DB33F"/>
<path d="M2344.6 215.6H2315.5V206.3H2383.5V215.6H2354.4V292.8H2344.6V215.6Z" fill="#6DB33F"/>
<path d="M2451.6 253.1V292.8H2442.2V282.6C2437.5 290.3 2427.8 294.3 2419.3 294.3C2405.6 294.3 2395.5 286.4 2395.5 273.5C2395.5 260.5 2407.1 251.8 2421.1 251.8C2428.1 251.8 2435.6 253.3 2442.3 255.5V253.1C2442.3 244.3 2438.8 234.2 2424.7 234.2C2418.2 234.2 2411.6 237.1 2405.7 240.1L2401.9 232.4C2411.2 227.7 2419 226.1 2425.3 226.1C2442.9 226.1 2451.6 237.3 2451.6 253.1ZM2442.2 272.3V262.4C2436.3 260.8 2429.6 259.8 2422.6 259.8C2412.9 259.8 2404.7 265.3 2404.7 273.1C2404.7 281.2 2411.7 285.9 2420.9 285.9C2429.4 285.9 2439.6 281.5 2442.2 272.3Z" fill="#6DB33F"/>
<path d="M2526.3 251.3V292.7H2516.9V252.5C2516.9 241.9 2510.2 234.5 2500.7 234.5C2489.7 234.5 2480.6 242.2 2480.6 251.2V292.6H2471.2V227.5H2480.6V237.9C2484.4 231 2492.8 225.9 2502 225.9C2516.2 226.1 2526.3 236.6 2526.3 251.3Z" fill="#6DB33F"/>
<path d="M2542.6 285.3L2581 236.6H2543.4V227.7H2593.8V235.1L2555.3 283.8H2594.1V292.7H2542.7L2542.6 285.3Z" fill="#6DB33F"/>
<path d="M2665.4 227.6V292.7H2656V282.3C2652.2 289.2 2643.8 294.3 2634.6 294.3C2620.2 294.3 2610.2 283.9 2610.2 269.1V227.7H2619.6V267.9C2619.6 278.5 2626.3 285.9 2635.8 285.9C2646.8 285.9 2655.9 278.2 2655.9 269.2V227.8H2665.4V227.6Z" fill="#6DB33F"/>
</g>
<defs>
<clipPath id="clip0_1_2">
<rect width="2674.9" height="417" fill="white"/>
</clipPath>
</defs>
</svg>
