<svg width="300" height="47" viewBox="0 0 300 47" fill="none" xmlns="http://www.w3.org/2000/svg">
<g clip-path="url(#clip0_2_29)">
<mask id="mask0_2_29" style="mask-type:luminance" maskUnits="userSpaceOnUse" x="0" y="0" width="300" height="47">
<path d="M299.776 1.17719e-07H0.21283V46.7H299.776V1.17719e-07Z" fill="white"/>
</mask>
<g mask="url(#mask0_2_29)">
<path d="M41.3021 3.24772C40.6526 4.82679 39.8126 6.22667 38.8831 7.48096C34.7843 3.30372 29.0504 0.649544 22.7229 0.649544C10.292 0.649544 0.134437 10.7511 0.134437 23.2268C0.134437 29.7447 2.923 35.613 7.34662 39.7566L8.18655 40.5069C12.095 43.8107 17.1794 45.8153 22.7117 45.8153C34.5827 45.8153 44.3595 36.5537 45.1994 24.8619C45.8713 19.184 44.1467 11.9158 41.3021 3.24772ZM10.6167 39.947C9.96719 40.7869 8.7577 40.8765 7.91777 40.227C7.07784 39.5774 6.98825 38.3679 7.63779 37.528C8.28734 36.6881 9.49684 36.5985 10.3368 37.248C11.1319 37.8976 11.2663 39.1071 10.6167 39.947ZM41.1677 33.194C35.6242 40.5965 23.7084 38.0879 16.1155 38.4575C16.1155 38.4575 14.7604 38.5471 13.4165 38.7375C13.4165 38.7375 13.9317 38.5023 14.5812 38.2671C19.9343 36.4081 22.4541 36.0273 25.713 34.3587C31.8165 31.2341 37.9088 24.3915 39.1295 17.3137C36.8001 24.1115 29.7223 29.9798 23.2941 32.354C18.8704 33.9891 10.9079 35.5682 10.9079 35.5682L10.5831 35.3778C5.1852 32.7236 4.99482 20.987 14.8724 17.2129C19.2064 15.5331 23.3053 16.4626 28.0088 15.3539C32.9924 14.1892 38.7711 10.4599 41.0893 5.57712C43.6763 13.45 46.8456 25.6458 41.1677 33.194Z" fill="#6DB33F"/>
<path d="M58.0223 32.0741C57.4623 31.7941 57.0928 31.1445 57.0928 30.3494C57.0928 29.2295 57.9775 28.3 59.1422 28.3C59.5565 28.3 59.9373 28.4344 60.2173 28.58C62.3115 29.9798 64.5513 30.6742 66.5 30.6742C68.639 30.6742 69.9045 29.7447 69.9045 28.3V28.2104C69.9045 26.4857 67.5751 25.9258 65.0105 25.1418C61.7964 24.2123 58.1679 22.902 58.1679 18.7136V18.624C58.1679 14.4804 61.6172 11.9606 65.94 11.9606C68.2694 11.9606 70.6884 12.6101 72.8274 13.73C73.5218 14.0996 74.0369 14.7491 74.0369 15.6339C74.0369 16.7986 73.1074 17.6833 71.9427 17.6833C71.5283 17.6833 71.2931 17.5937 70.9684 17.4481C69.1989 16.5186 67.3847 15.9586 65.8504 15.9586C63.8906 15.9586 62.7819 16.8882 62.7819 18.0977V18.1872C62.7819 19.8223 65.1561 20.4718 67.7206 21.3118C70.9348 22.2861 74.5185 23.7756 74.5185 27.6952V27.7848C74.5185 32.3988 70.9348 34.6722 66.4216 34.6722C63.5658 34.6834 60.5309 33.7987 58.0223 32.0741Z" fill="#6DB33F"/>
<path d="M76.3663 14.5252C76.3663 13.1253 77.4414 12.0054 78.8301 12.0054C80.2188 12.0054 81.3499 13.1253 81.3499 14.5252V16.0146C82.9849 13.73 85.2583 11.9158 88.7972 11.9158C93.9152 11.9158 98.9436 15.9698 98.9436 23.2828V23.3724C98.9436 30.6406 93.96 34.7394 88.7972 34.7394C85.1688 34.7394 82.8842 32.9252 81.3499 30.8758V38.6031C81.3499 40.003 80.23 41.1229 78.8301 41.1229C77.475 41.1229 76.3663 40.0478 76.3663 38.6031V14.5252ZM93.9264 23.3724V23.2828C93.9264 19.0496 91.0818 16.2946 87.6885 16.2946C84.284 16.2946 81.3051 19.1392 81.3051 23.2828V23.3724C81.3051 27.5608 84.284 30.3606 87.6885 30.3606C91.0818 30.4054 93.9264 27.6952 93.9264 23.3724Z" fill="#6DB33F"/>
<path d="M100.903 14.5252C100.903 13.1253 101.979 12.0054 103.367 12.0054C104.756 12.0054 105.887 13.1253 105.887 14.5252V15.7347C106.122 13.8756 109.191 12.0054 111.386 12.0054C112.965 12.0054 113.849 13.0245 113.849 14.4692C113.849 15.7682 112.965 16.653 111.845 16.8882C108.261 17.4929 105.842 20.6174 105.842 24.9403V32.1524C105.842 33.5075 104.722 34.6162 103.322 34.6162C101.967 34.6162 100.859 33.5411 100.859 32.1524V14.5252H100.903Z" fill="#6DB33F"/>
<path d="M115.854 14.57C115.854 13.1701 116.929 12.0502 118.318 12.0502C119.707 12.0502 120.838 13.1701 120.838 14.57V32.2196C120.838 33.6195 119.718 34.6834 118.318 34.6834C116.963 34.6834 115.854 33.6083 115.854 32.2196V14.57Z" fill="#6DB33F"/>
<path d="M123.402 14.57C123.402 13.1701 124.477 12.0502 125.866 12.0502C127.255 12.0502 128.386 13.1701 128.386 14.57V15.5891C129.786 13.5396 131.835 12.0054 135.228 12.0054C140.167 12.0054 143.001 15.3091 143.001 20.3823V32.1636C143.001 33.5635 141.925 34.6274 140.537 34.6274C139.148 34.6274 138.017 33.5523 138.017 32.1636V21.9165C138.017 18.512 136.337 16.5634 133.313 16.5634C130.424 16.5634 128.375 18.6128 128.375 22.0061V32.2084C128.375 33.6083 127.255 34.6722 125.855 34.6722C124.5 34.6722 123.391 33.5971 123.391 32.2084L123.402 14.57Z" fill="#6DB33F"/>
<path d="M165.074 11.9606C163.674 11.9606 162.554 13.0805 162.554 14.4804V15.9698C160.919 13.6852 158.646 11.871 155.107 11.871C149.989 11.871 144.96 15.925 144.96 23.238V23.3276C144.96 30.5958 149.944 34.6946 155.107 34.6946C158.735 34.6946 161.02 32.8804 162.554 30.8758C162.319 34.829 159.9 36.8784 155.667 36.8784C153.147 36.8784 150.963 36.2737 148.958 35.1538C148.723 35.0194 148.399 34.9634 148.074 34.9634C146.909 34.9634 145.935 35.8929 145.935 37.0128C145.935 37.9871 146.495 38.6927 147.335 39.0175C149.989 40.3165 152.733 40.9773 155.812 40.9773C159.766 40.9773 162.845 40.0478 164.805 38.0431C166.619 36.2289 167.594 33.4851 167.594 29.8006V14.5252C167.594 13.0805 166.474 11.9606 165.074 11.9606ZM156.271 30.3494C152.822 30.3494 150.034 27.6504 150.034 23.3164V23.2268C150.034 18.9936 152.878 16.2386 156.271 16.2386C159.665 16.2386 162.655 19.0832 162.655 23.2268V23.3164C162.7 27.516 159.721 30.3494 156.271 30.3494Z" fill="#6DB33F"/>
<path d="M120.882 6.00269C120.882 7.40257 119.763 8.52247 118.363 8.52247C116.963 8.52247 115.843 7.40257 115.843 6.00269C115.843 4.60281 116.963 3.4829 118.363 3.4829C119.718 3.43811 120.882 4.55801 120.882 6.00269Z" fill="#6DB33F"/>
<path d="M173.316 17.2241C171.917 17.2241 170.752 16.0594 170.752 14.6595C170.752 13.2149 171.917 12.095 173.316 12.095C174.761 12.095 175.881 13.2597 175.881 14.6595C175.881 16.0594 174.761 17.2241 173.316 17.2241ZM173.316 12.4757C172.107 12.4757 171.133 13.45 171.133 14.6595C171.133 15.869 172.107 16.8434 173.316 16.8434C174.526 16.8434 175.5 15.869 175.5 14.6595C175.5 13.4053 174.526 12.4757 173.316 12.4757ZM174.011 16.1042L173.26 14.9395H172.745V16.1042H172.331V13.1701H173.54C174.056 13.1701 174.515 13.5396 174.515 14.0548C174.515 14.7043 173.91 14.9395 173.764 14.9395L174.56 16.1042H174.011ZM173.507 13.5396H172.756V14.5588H173.552C173.787 14.5588 174.067 14.3684 174.067 14.0436C174.067 13.73 173.787 13.5396 173.507 13.5396Z" fill="#6DB33F"/>
<path d="M185.255 29.1287C185.255 31.3685 183.821 32.9476 181.895 32.9476C180.73 32.9476 179.789 32.3652 179.241 31.4133V32.7796H178.188V22.9244H179.241V26.8553C179.789 25.8922 180.719 25.321 181.895 25.321C183.81 25.321 185.255 26.9001 185.255 29.1287ZM184.135 29.1287C184.135 27.4489 183.116 26.2618 181.693 26.2618C180.26 26.2618 179.241 27.4489 179.241 29.1287C179.241 30.8086 180.26 32.0069 181.693 32.0069C183.127 32.0069 184.135 30.8086 184.135 29.1287Z" fill="#6DB33F"/>
<path d="M187.013 35.0866L187.27 34.1795C187.528 34.3027 187.819 34.3587 188.133 34.3587C188.603 34.3587 188.905 34.2019 189.185 33.7091L189.611 32.802L186.442 25.489H187.606L190.16 31.5477L192.568 25.489H193.71L190.384 33.5971C189.88 34.8402 189.174 35.2994 188.166 35.3218C187.752 35.3218 187.349 35.2322 187.013 35.0866Z" fill="#6DB33F"/>
<path d="M208.661 23.0924L204.394 32.7796H203.195L198.929 23.0924H200.127L203.811 31.4245L207.473 23.0924H208.661Z" fill="#6DB33F"/>
<path d="M210.43 23.0924H211.528L215.122 29.8454L218.717 23.0924H219.815V32.7796H218.717V25.4666L215.122 32.2196L211.528 25.4666V32.7796H210.43V23.0924Z" fill="#6DB33F"/>
<path d="M221.64 25.489H222.771L224.586 31.3685L226.579 25.489H227.497L229.491 31.3685L231.305 25.489H232.436L229.984 32.7796H228.987L227.061 26.9561L225.101 32.7796H224.104L221.64 25.489Z" fill="#6DB33F"/>
<path d="M239.884 28.3448V32.7908H238.831V31.6485C238.304 32.5108 237.218 32.9588 236.266 32.9588C234.732 32.9588 233.601 32.0741 233.601 30.6294C233.601 29.1735 234.9 28.1992 236.468 28.1992C237.252 28.1992 238.092 28.3672 238.842 28.6135V28.3448C238.842 27.3593 238.45 26.2282 236.871 26.2282C236.143 26.2282 235.404 26.5529 234.743 26.8889L234.318 26.0266C235.359 25.5002 236.233 25.321 236.938 25.321C238.909 25.321 239.884 26.5753 239.884 28.3448ZM238.831 30.495V29.3863C238.17 29.2071 237.42 29.0951 236.636 29.0951C235.549 29.0951 234.631 29.7111 234.631 30.5846C234.631 31.4917 235.415 32.0181 236.445 32.0181C237.409 32.0181 238.551 31.5253 238.831 30.495Z" fill="#6DB33F"/>
<path d="M246.021 25.321V26.2618C244.374 26.2618 243.198 27.2809 243.198 28.7031V32.7796H242.146V25.489H243.198V26.9113C243.635 25.9482 244.677 25.321 246.021 25.321Z" fill="#6DB33F"/>
<path d="M253.065 31.1333L253.714 31.8277C253.076 32.522 251.799 32.9588 250.78 32.9588C248.832 32.9588 247.084 31.3685 247.084 29.1287C247.084 26.9561 248.72 25.3322 250.679 25.3322C252.874 25.3322 254.129 27.0009 254.129 29.5431H248.16C248.316 30.9653 249.313 32.0069 250.758 32.0069C251.631 32.0069 252.617 31.6261 253.065 31.1333ZM248.193 28.5912H253.098C252.953 27.2809 252.18 26.2618 250.724 26.2618C249.436 26.2729 248.395 27.1801 248.193 28.5912Z" fill="#6DB33F"/>
<path d="M262.786 24.1451H259.527V23.1036H267.142V24.1451H263.883V32.7908H262.786V24.1451Z" fill="#6DB33F"/>
<path d="M274.769 28.3448V32.7908H273.716V31.6485C273.189 32.5108 272.103 32.9588 271.151 32.9588C269.617 32.9588 268.486 32.0741 268.486 30.6294C268.486 29.1735 269.785 28.1992 271.353 28.1992C272.137 28.1992 272.977 28.3672 273.727 28.6135V28.3448C273.727 27.3593 273.335 26.2282 271.756 26.2282C271.028 26.2282 270.289 26.5529 269.628 26.8889L269.203 26.0266C270.244 25.5002 271.118 25.321 271.823 25.321C273.794 25.321 274.769 26.5753 274.769 28.3448ZM273.716 30.495V29.3863C273.055 29.2071 272.305 29.0951 271.521 29.0951C270.434 29.0951 269.516 29.7111 269.516 30.5846C269.516 31.4917 270.3 32.0181 271.33 32.0181C272.282 32.0181 273.425 31.5253 273.716 30.495Z" fill="#6DB33F"/>
<path d="M283.134 28.1432V32.7796H282.081V28.2776C282.081 27.0905 281.331 26.2617 280.267 26.2617C279.035 26.2617 278.016 27.1241 278.016 28.132V32.7684H276.964V25.4778H278.016V26.6425C278.442 25.8698 279.383 25.2986 280.413 25.2986C282.003 25.321 283.134 26.4969 283.134 28.1432Z" fill="#6DB33F"/>
<path d="M284.96 31.9509L289.26 26.4969H285.049V25.5002H290.694V26.3289L286.382 31.7829H290.727V32.7796H284.971L284.96 31.9509Z" fill="#6DB33F"/>
<path d="M298.712 25.489V32.7796H297.659V31.6149C297.234 32.3876 296.293 32.9588 295.263 32.9588C293.65 32.9588 292.53 31.7941 292.53 30.1366V25.5002H293.583V30.0022C293.583 31.1893 294.333 32.0181 295.397 32.0181C296.629 32.0181 297.648 31.1557 297.648 30.1478V25.5114H298.712V25.489Z" fill="#6DB33F"/>
</g>
</g>
<defs>
<clipPath id="clip0_2_29">
<rect width="300" height="46.7" fill="white"/>
</clipPath>
</defs>
</svg>
